<svg width="25" height="20" viewBox="0 0 25 20" fill="none" xmlns="http://www.w3.org/2000/svg">
<path d="M16.185 10.8125C16.8117 10.8125 17.349 10.5894 17.7969 10.1431C18.2448 9.69685 18.4688 9.1604 18.4688 8.53375C18.4688 7.90708 18.2456 7.36979 17.7994 6.92188C17.3531 6.47396 16.8166 6.25 16.19 6.25C15.5633 6.25 15.026 6.47312 14.5781 6.91937C14.1302 7.36565 13.9062 7.9021 13.9062 8.52875C13.9062 9.15542 14.1294 9.69271 14.5756 10.1406C15.0219 10.5885 15.5584 10.8125 16.185 10.8125ZM11.1875 16.25H21.1875V15.6562C21.1875 14.7812 20.7448 14.1042 19.8594 13.625C18.974 13.1458 17.75 12.9062 16.1875 12.9062C14.625 12.9062 13.401 13.1458 12.5156 13.625C11.6302 14.1042 11.1875 14.7812 11.1875 15.6562V16.25ZM1.875 20C1.375 20 0.9375 19.8073 0.5625 19.4219C0.1875 19.0365 0 18.6042 0 18.125V1.875C0 1.39583 0.1875 0.963542 0.5625 0.578125C0.9375 0.192708 1.375 0 1.875 0H10.625L12.5 1.875H23.125C23.6042 1.875 24.0365 2.06771 24.4219 2.45312C24.8073 2.83854 25 3.27083 25 3.75V18.125C25 18.6042 24.8073 19.0365 24.4219 19.4219C24.0365 19.8073 23.6042 20 23.125 20H1.875ZM1.875 1.875V18.125H23.125V3.75H11.7188L9.84375 1.875H1.875Z" fill="black"/>
</svg>
