<svg width="25" height="20" viewBox="0 0 25 20" fill="none" xmlns="http://www.w3.org/2000/svg">
<path d="M1.875 20C1.39583 20 0.963542 19.8073 0.578125 19.4219C0.192708 19.0365 0 18.6042 0 18.125V1.875C0 1.39583 0.192708 0.963542 0.578125 0.578125C0.963542 0.192708 1.39583 0 1.875 0H10.625L12.5 1.875H23.125C23.6042 1.875 24.0365 2.06771 24.4219 2.45312C24.8073 2.83854 25 3.27083 25 3.75V18.125C25 18.6042 24.8073 19.0365 24.4219 19.4219C24.0365 19.8073 23.6042 20 23.125 20H1.875ZM17.5 18.125H23.125V3.75H17.5V6.625H20.375V9.5H17.5V12.375H20.375V15.25H17.5V18.125ZM1.875 18.125H14.625V15.25H17.5V12.375H14.625V9.5H17.5V6.625H14.625V3.75H11.7188L9.84375 1.875H1.875V18.125ZM1.875 3.75V1.875V18.125V3.75Z" fill="black"/>
</svg>
