<svg width="25" height="20" viewBox="0 0 25 20" fill="none" xmlns="http://www.w3.org/2000/svg">
<path d="M1.875 20C1.375 20 0.9375 19.8073 0.5625 19.4219C0.1875 19.0365 0 18.6042 0 18.125V1.875C0 1.39583 0.1875 0.963542 0.5625 0.578125C0.9375 0.192708 1.375 0 1.875 0H10.625L12.5 1.875H23.125C23.6042 1.875 24.0365 2.06771 24.4219 2.45312C24.8073 2.83854 25 3.27083 25 3.75V18.125C25 18.6042 24.8073 19.0365 24.4219 19.4219C24.0365 19.8073 23.6042 20 23.125 20H1.875ZM1.875 1.875V18.125H23.125V3.75H11.7188L9.84375 1.875H1.875Z" fill="black"/>
<path d="M15.6582 16.6875L15.5178 15.3398C15.0872 15.2088 14.6942 15.0356 14.3385 14.8204C13.9829 14.6051 13.674 14.3758 13.412 14.1325L12.2327 14.694L11.25 13.1778L12.3169 12.3355C12.2234 11.9799 12.1766 11.5914 12.1766 11.1703C12.1766 10.7491 12.2234 10.3607 12.3169 10.0051L11.25 9.16275L12.2327 7.6185L13.412 8.18004C13.674 7.95542 13.9829 7.73549 14.3385 7.52023C14.6942 7.30496 15.0872 7.13182 15.5178 7.00079L15.6582 5.625H17.3428L17.5113 7.00079C17.9418 7.13182 18.3349 7.30496 18.6905 7.52023C19.0462 7.73549 19.355 7.95542 19.6171 8.18004L20.7963 7.6185L21.779 9.16275L20.7121 10.0051C20.8057 10.3607 20.8525 10.7491 20.8525 11.1703C20.8525 11.5914 20.8057 11.9799 20.7121 12.3355L21.779 13.1778L20.7963 14.694L19.6171 14.1325C19.355 14.3758 19.0462 14.6051 18.6905 14.8204C18.3349 15.0356 17.9418 15.2088 17.5113 15.3398L17.3428 16.6875H15.6582ZM16.5005 14.0201C17.3241 14.0201 18.0073 13.7487 18.5501 13.2059C19.093 12.6631 19.3644 11.9799 19.3644 11.1562C19.3644 10.3326 19.093 9.64943 18.5501 9.1066C18.0073 8.56377 17.3241 8.29235 16.5005 8.29235C15.6769 8.29235 14.9937 8.56377 14.4508 9.1066C13.908 9.64943 13.6366 10.3326 13.6366 11.1562C13.6366 11.9799 13.908 12.6631 14.4508 13.2059C14.9937 13.7487 15.6769 14.0201 16.5005 14.0201Z" fill="black"/>
</svg>
