<svg width="25" height="20" viewBox="0 0 25 20" fill="none" xmlns="http://www.w3.org/2000/svg">
<path d="M15 14.375V7.5H17.3438L19.375 9.53125V14.375H15ZM13.125 16.25H21.25V8.75L18.125 5.625H13.125V16.25ZM1.875 20C1.375 20 0.9375 19.8073 0.5625 19.4219C0.1875 19.0365 0 18.6042 0 18.125V1.875C0 1.39583 0.1875 0.963542 0.5625 0.578125C0.9375 0.192708 1.375 0 1.875 0H10.625L12.5 1.875H23.125C23.6042 1.875 24.0365 2.06771 24.4219 2.45312C24.8073 2.83854 25 3.27083 25 3.75V18.125C25 18.6042 24.8073 19.0365 24.4219 19.4219C24.0365 19.8073 23.6042 20 23.125 20H1.875ZM1.875 1.875V18.125H23.125V3.75H11.7188L9.84375 1.875H1.875Z" fill="black"/>
</svg>
