<svg width="25" height="20" viewBox="0 0 25 20" fill="none" xmlns="http://www.w3.org/2000/svg">
<path d="M14.6562 16.25H18.4062C18.8403 16.25 19.2092 16.0981 19.513 15.7943C19.8168 15.4904 19.9688 15.1215 19.9688 14.6875V8.28125H21.2188V6.71875H17.7812V5.625H15.2812V6.71875H11.8438V8.28125H13.0938V14.6875C13.0938 15.1215 13.2457 15.4904 13.5495 15.7943C13.8533 16.0981 14.2222 16.25 14.6562 16.25ZM14.6562 14.6875V8.28125H18.4062V14.6875H14.6562ZM1.875 20C1.375 20 0.9375 19.8073 0.5625 19.4219C0.1875 19.0365 0 18.6042 0 18.125V1.875C0 1.39583 0.1875 0.963542 0.5625 0.578125C0.9375 0.192708 1.375 0 1.875 0H10.625L12.5 1.875H23.125C23.6042 1.875 24.0365 2.06771 24.4219 2.45312C24.8073 2.83854 25 3.27083 25 3.75V18.125C25 18.6042 24.8073 19.0365 24.4219 19.4219C24.0365 19.8073 23.6042 20 23.125 20H1.875ZM1.875 18.125H23.125V3.75H11.6875L9.8125 1.875H1.875V18.125Z" fill="black"/>
</svg>
