<svg width="19" height="14" viewBox="0 0 19 14" fill="none" xmlns="http://www.w3.org/2000/svg">
<g id="Vector">
<path d="M9.07407 13.2506C3.02815 13.2506 0.186667 7.29452 0.0622222 7.04434C0.0211451 6.95284 0 6.85479 0 6.75568C0 6.65657 0.0211451 6.55852 0.0622222 6.46702C0.186667 6.21684 3.02815 0.260742 9.07407 0.260742C15.12 0.260742 17.9615 6.21684 18.0859 6.46702C18.127 6.55852 18.1481 6.65657 18.1481 6.75568C18.1481 6.85479 18.127 6.95284 18.0859 7.04434C17.9615 7.29452 15.12 13.2506 9.07407 13.2506ZM1.63852 6.75568C2.25037 7.86222 4.74963 11.8073 9.07407 11.8073C13.3985 11.8073 15.8978 7.86222 16.5096 6.75568C15.8978 5.64913 13.3985 1.70406 9.07407 1.70406C4.74963 1.70406 2.25037 5.64913 1.63852 6.75568Z" fill="black" fill-opacity="0.3"/>
<path d="M9.07407 9.88287C8.40747 9.88287 7.7559 9.69947 7.2016 9.35587C6.64735 9.01226 6.21536 8.52384 5.96026 7.95238C5.70517 7.38102 5.63842 6.75222 5.76847 6.14564C5.89851 5.53896 6.21951 4.98174 6.69086 4.54442C7.16219 4.10707 7.76274 3.80924 8.41659 3.68858C9.07034 3.56792 9.74804 3.62984 10.3638 3.86653C10.9797 4.10322 11.5061 4.50404 11.8765 5.01831C12.2468 5.53261 12.4444 6.13717 12.4444 6.75568C12.4417 7.58424 12.0857 8.37826 11.4543 8.96415C10.8228 9.55004 9.96707 9.88037 9.07407 9.88287ZM9.07407 5.07181C8.71516 5.07181 8.36422 5.17053 8.06587 5.35556C7.76741 5.5406 7.5348 5.80357 7.39739 6.11129C7.26009 6.419 7.2241 6.75751 7.2941 7.08418C7.36421 7.41085 7.53698 7.71087 7.79084 7.94632C8.04461 8.18187 8.36796 8.34227 8.72003 8.40722C9.0721 8.47217 9.43693 8.43878 9.76858 8.31139C10.1002 8.18389 10.3836 7.96807 10.5831 7.69114C10.7825 7.41431 10.8889 7.0887 10.8889 6.75568C10.8862 6.30989 10.6941 5.88305 10.3543 5.56783C10.0146 5.25251 9.55453 5.07431 9.07407 5.07181Z" fill="black" fill-opacity="0.3"/>
</g>
</svg>
