<svg width="19" height="14" viewBox="0 0 19 14" fill="none" xmlns="http://www.w3.org/2000/svg">
<g id="Vector">
<path d="M18.0854 6.92144C17.9609 6.67127 15.1195 0.715214 9.07359 0.715214C8.49472 0.714656 7.91741 0.772725 7.35212 0.888411C7.16587 0.9419 7.00814 1.0583 6.91003 1.21459C6.81191 1.37087 6.78064 1.55563 6.82237 1.7323C6.8641 1.90896 6.9758 2.06465 7.13538 2.16854C7.29498 2.27242 7.49067 2.31692 7.68397 2.29323C8.14099 2.2046 8.60662 2.15947 9.07359 2.15852C13.4084 2.15852 15.8972 6.10357 16.5091 7.2101C16.1361 7.88634 15.6988 8.53034 15.2024 9.13451C15.1132 9.24103 15.0581 9.36862 15.0431 9.50275C15.0281 9.63688 15.0539 9.77217 15.1176 9.8934C15.1814 10.0146 15.2803 10.1168 15.4035 10.1885C15.5266 10.2602 15.6689 10.2984 15.8143 10.2988C15.9324 10.2984 16.0489 10.2731 16.1549 10.2248C16.2609 10.1764 16.3536 10.1063 16.4261 10.0197C17.0792 9.25017 17.6359 8.41401 18.0854 7.52763C18.1308 7.43218 18.1542 7.32894 18.1542 7.22454C18.1542 7.12014 18.1308 7.01689 18.0854 6.92144Z" fill="black" fill-opacity="0.3"/>
<path d="M3.40103 0.926928C3.25359 0.799455 3.05857 0.730061 2.85708 0.733352C2.65558 0.736652 2.46334 0.812387 2.32083 0.944614C2.17833 1.07683 2.09671 1.25521 2.09315 1.44217C2.08959 1.62913 2.16439 1.81006 2.30178 1.94687L3.25585 2.8321C1.90489 3.98521 0.818537 5.37931 0.0617964 6.93106C0.0210101 7.02093 0 7.11744 0 7.21491C0 7.31248 0.0210101 7.40899 0.0617964 7.49876C0.18624 7.74894 3.0277 13.705 9.07359 13.705C10.6906 13.7124 12.2742 13.2774 13.6261 12.4541L14.7461 13.4933C14.8919 13.6285 15.0896 13.7044 15.2958 13.7044C15.5018 13.7044 15.6996 13.6285 15.8454 13.4933C15.991 13.358 16.0728 13.1746 16.0728 12.9833C16.0728 12.7921 15.991 12.6087 15.8454 12.4734L3.40103 0.926928ZM7.37286 6.70013L9.6647 8.83623C9.34353 8.93505 8.99944 8.95141 8.66905 8.88367C8.33865 8.81593 8.03407 8.66659 7.78767 8.45135C7.53671 8.22177 7.36363 7.92906 7.29 7.60932C7.21627 7.28958 7.2451 6.95675 7.37286 6.65202V6.70013ZM9.07359 12.2617C4.72843 12.2617 2.24993 8.30702 1.63808 7.2101C2.31493 5.94605 3.23582 4.80791 4.3551 3.85203L6.21138 5.57435C5.81297 6.17179 5.64375 6.8766 5.73114 7.57449C5.81852 8.27238 6.15739 8.92235 6.6928 9.41913C7.2282 9.91592 7.92881 10.2304 8.68087 10.3114C9.43302 10.3925 10.1926 10.2355 10.8365 9.86579L12.5062 11.4149C11.4642 11.9769 10.2788 12.2693 9.07359 12.2617Z" fill="black" fill-opacity="0.3"/>
</g>
</svg>
